<?xml version="1.0" encoding="utf-8"?>
<!-- Generator: Adobe Illustrator 23.0.1, SVG Export Plug-In . SVG Version: 6.00 Build 0)  -->
<svg version="1.1" id="Layer_1" xmlns="http://www.w3.org/2000/svg" xmlns:xlink="http://www.w3.org/1999/xlink" x="0px" y="0px"
	 viewBox="0 0 1000 1000" style="enable-background:new 0 0 1000 1000;" xml:space="preserve">
<style type="text/css">
	.st0{fill:#410093;}
</style>
<g>
	<path class="st0" d="M501.1,76.6C327.9,76.6,164.3,53.8,10,10c0,346.3,0,893.1,0,980c154.5-43.8,318.1-66.6,491.1-66.6
		c171.1,0,334.4,22.2,488.9,66.6c0-333.4,0-621.9,0-980C835.5,54.4,672.5,76.6,501.1,76.6z M772.6,160.3l-5.9,9.4
		c-5.5,8.8-10.5,16.3-17.4,26.8c-9.2,13.8-26.4,41.2-47.1,76.4c-5.7,9.8-12.8,21.4-20.1,34.1c-14,23.6-29.7,50.1-42.1,71.2
		c-5.2,9-10.3,18.2-15.7,27.4c-13.8,23.9-27.9,48.6-41.5,72.4c-14,24.7-27.8,49-41.5,73.1v24.3c0,33.7,0.8,70.4,1.9,103.2
		c0.6,14.9,1.1,41.5,1.9,69.7c0.8,33.5,1.5,68.1,2.5,85.8l0.2,5.4v0.6l-5.7-1.5c-2.3-0.6-4.4-1.1-6.7-1.7
		c-6.9-1.5-14.4-2.7-21.6-3.4c-4.4-0.4-9-0.6-13.6-0.6l0,0l0,0c-4.6,0-9.2,0.2-13.6,0.6c-7.3,0.8-14.7,1.9-21.6,3.4
		c-2.3,0.6-4.6,1.1-6.7,1.7l-5.7,1.5v-0.6l0.2-5.4c0.8-17.4,1.7-52.3,2.5-85.8c0.6-28.1,1.3-54.7,1.9-69.7
		c1.3-32.9,1.9-69.5,1.9-103.2v-24.3c-13.8-24.3-27.6-48.4-41.5-73.1c-13.6-23.9-27.8-48.4-41.3-72.4c-5.4-9.2-10.5-18.4-15.7-27.4
		c-12.3-21.2-28.1-47.9-42.1-71.2c-7.5-12.4-14.5-24.3-20.1-34.1c-20.7-35.2-37.9-62.4-47.1-76.4c-6.9-10.5-11.9-18-17.4-26.8
		l-5.9-9.4l10.7,3.1c13.6,3.8,27.6,5.7,42.5,5.7c14.9,0,29.3-1.9,42.7-5.7l3.2-1l1.7,2.9c26.4,47.7,97.4,164.4,139.9,234.3
		c14.5,24.1,26.2,43.1,32,52.8c0,0,0,0,0-0.2c0,0,0,0,0,0.2c5.7-9.6,17.4-28.7,32-52.8c42.5-69.7,113.5-186.4,139.9-234.3l1.7-2.9
		l3.2,1c13.4,3.8,27.8,5.7,42.7,5.7s28.9-1.9,42.5-5.7L772.6,160.3z"/>
</g>
</svg>
