<?xml version="1.0" encoding="utf-8"?>
<!-- Generator: Adobe Illustrator 23.0.1, SVG Export Plug-In . SVG Version: 6.00 Build 0)  -->
<svg version="1.1" id="Calque_1" xmlns="http://www.w3.org/2000/svg" xmlns:xlink="http://www.w3.org/1999/xlink" x="0px" y="0px"
	 viewBox="0 0 182.6 178.4" style="enable-background:new 0 0 182.6 178.4;" xml:space="preserve">
<style type="text/css">
	.st0{fill:#4BA2EA;}
	.st1{fill:#FF3B4A;}
	.st2{fill:#65CEE7;}
	.st3{fill:#87C966;}
	.st4{fill:url(#SVGID_1_);}
	.st5{fill:#AF27CC;}
</style>
<title>logo-home2</title>
<g>
	<path class="st0" d="M139.7,163c0.8,1.6,1.5,3.9,3.1,4.8c1.2,0.5,2.5,0.7,3.8,0.5H170c2.1,0,3.8-1.7,3.8-3.8c0-0.6-0.1-1.2-0.4-1.8
		c-1.5-2.8-3-5.6-4.4-8.4l-9-17c-0.5-0.8-0.9-1.6-1.1-2.5c0,0-0.3-0.5,0.1-2c0.4-1.1,5.9-11.8,6.2-12.9c2.2-6.9,29.1-71.7-47.3-78.4
		c0.6,0.3,1.1,0.7,1.7,1c6.5,4.2,12.1,9.7,16.3,16.2c9.5,14.9,11,33.5,4.1,49.7c-1.1,2.7-2.5,5.2-4,7.7c-2.7,4.2-5.9,7.9-9.6,11.2
		c-0.9,0.6-1.6,1.5-2,2.5c-0.3,0.9-0.2,1.9,0.2,2.8L139.7,163z"/>
	<path class="st1" d="M9.3,78.2c12.3-8.4,24.7-8.9,28.6,2.6c0,0.2-0.1,0.4-0.1,0.6c-3.4,28.9,17,55.2,45.9,59.1
		c4.8,0.7,9.7,0.6,14.6-0.1c1.2-0.2,2.3-0.4,3.5-0.6c0.8-0.2,1.7-0.3,2.6-0.2C105.8,156.1,54,160.4,22,121
		C14,111.2,10.2,91.5,9.3,78.2"/>
	<path class="st2" d="M169.3,111.6c-1.3,4.1-2.9,8.2-4.9,12c-0.4,0.8-0.8,1.6-1.2,2.4c-0.6,1.1-1.2,2.2-1.9,3.3
		c-0.9,1.2-1.7,2.5-2.3,3.8l0.1-0.2c0.4-1.1,0.8-2.2,1.1-3.3c11.5-35.9-7-74.5-42.2-88c-0.3-0.2-0.5-0.3-0.8-0.4l0,0
		c2,1.1-9.7-28.5,14.7-24.7c1,0.5,2,1.1,3.1,1.7c7,4.2,13.3,9.5,18.7,15.6c5.9,6.7,10.5,14.4,13.8,22.7c3.5,9.1,5.4,18.7,5.5,28.4
		C173.1,94,171.9,103,169.3,111.6z"/>
	<path class="st3" d="M138.4,28.5c0,1.8-0.4,3.6-1,5.3c-2.2,5.5-7.5,9-13.4,9.1c-2.4,0-4.7-0.6-6.9-1.7l0,0c-6.6-3.7-14-6-21.6-6.7
		c-9.4-0.9-18.9,0.8-27.5,4.9c-4.2,1.9-8,4.4-11.5,7.4c-3.3,2.8-6.2,5.9-8.8,9.4c-4.9,6.7-8.1,14.4-9.5,22.6
		C11.9,46.6,65.9-5.1,126.4,14.3l0,0c1,0.3,2.1,0.6,3.1,0.9c0.8,0.4,1.6,0.8,2.3,1.2h0.1C135.9,19.1,138.4,23.7,138.4,28.5z"/>
	
		<linearGradient id="SVGID_1_" gradientUnits="userSpaceOnUse" x1="9.5411" y1="384.179" x2="129.3924" y2="384.179" gradientTransform="matrix(1 0 0 1 -0.2 -334.6948)">
		<stop  offset="0" style="stop-color:#FFDA12"/>
		<stop  offset="1" style="stop-color:#EFE333"/>
	</linearGradient>
	<path class="st4" d="M129.2,15.1c-0.9-0.3-1.8-0.6-2.8-0.8l0,0c-4.6-1.2-9.3-2-14-2.3c-1.4-0.1-2.8-0.1-4.3-0.1
		C70.7,12.1,40,41.5,38.2,78.8c-0.1,0.2-0.1,0.5-0.1,0.8l0,0C38,80,38,80.4,37.9,80.8l0,0c-1.3,6.8-7.2,11.8-14.2,11.8h-0.4
		c-7.8-0.2-14-6.6-14-14.4c0-0.6,0.1-1.2,0.1-1.8l0,0c1.1-8.5,3.5-16.8,7.2-24.5c4-8.5,9.6-16.2,16.3-22.7
		c6.8-6.5,14.6-11.7,23.1-15.6c8.6-3.8,17.8-6.1,27.2-6.8c5.4-0.4,10.8-0.4,16.2,0.1c3.8,0.3,7.6,0.9,11.3,1.8
		C117.2,10,123.4,12.2,129.2,15.1z"/>
	<path class="st5" d="M116.3,162.9c-0.8,2.2-3,2.5-5,3c-2.4,0.6-4.7,1-7.2,1.4c-4.4,0.6-8.8,0.9-13.2,1.1c-4.6,0.1-9.2-0.1-13.8-0.9
		c-4.8-0.7-9.6-1.8-14.2-3.2c-11.2-3.6-21.4-9.6-29.9-17.7c-4.5-4.3-8.4-9-11.8-14.2c-5-7.8-8.6-16.4-10.6-25.4
		c-2-9.4-2.5-19-1.5-28.6v-0.2c2,35,29.6,63.1,64.6,65.6c1.9,0.2,3.8,0.2,5.7,0.2c8.5,0,16.9-1.5,24.8-4.5c0.1,0,0.3,0.1,0.4,0.1
		c1,0.3,1.9,1.1,2.3,2.1c1.8,3.5,3.6,7,5.3,10.6c0.1,0.1,0.1,0.3,0.2,0.4c0.9,1.8,1.8,3.6,2.7,5.4
		C116,159.6,116.9,161.1,116.3,162.9z"/>
</g>
</svg>
