<?xml version="1.0" encoding="utf-8"?>
<!-- Generator: Adobe Illustrator 23.0.1, SVG Export Plug-In . SVG Version: 6.00 Build 0)  -->
<svg version="1.1" id="Layer_1" xmlns="http://www.w3.org/2000/svg" xmlns:xlink="http://www.w3.org/1999/xlink" x="0px" y="0px"
	 viewBox="0 0 2048 2048" style="enable-background:new 0 0 2048 2048;" xml:space="preserve">
<style type="text/css">
	.st0{fill-rule:evenodd;clip-rule:evenodd;fill:#DA4A26;}
	.st1{fill-rule:evenodd;clip-rule:evenodd;fill:#B5B5B5;}
	.st2{fill-rule:evenodd;clip-rule:evenodd;fill:#FEFEFE;}
	.st3{fill:#212121;}
	.st4{fill-rule:evenodd;clip-rule:evenodd;fill:#FFCA28;}
	.st5{fill-rule:evenodd;clip-rule:evenodd;fill:#64BB46;}
	.st6{fill-rule:evenodd;clip-rule:evenodd;fill:#43A144;}
	.st7{fill-rule:evenodd;clip-rule:evenodd;fill:#2C4F8E;}
	.st8{fill-rule:evenodd;clip-rule:evenodd;fill:#FFFFFE;}
	.st9{fill:none;}
</style>
<g id="Layer_x0020_1">
	<circle class="st0" cx="1029.9" cy="1024" r="937.4"/>
	<path class="st1" d="M1101.1,987.5L1101.1,987.5z M1024.5,563.7c-9.1-11.4-20.3-22.5-33.7-33.1c-15-11.9-32.7-23.4-53.2-34.3
		c-39.5-21-83.9-35.6-129.9-42.9c-44.8-7.1-91.1-7-135.6,1l1.5,35.6c2,0.2,8.7,4.4,16.2,9.4c-23.3,6.7-44.8,16.3-44.5,44.7l0.2,19.7
		l19.5-2c33.1-3.3,67.8-2.3,101.8,2.9c10.4,1.6,20.7,3.6,30.9,6l-4.9,1.3c-23,6.3-43.9,14.1-61.1,23.2
		c-52.1,27.4-85.1,68.6-101.6,122.1c-15.9,51.8-16.1,114.7-3.1,187.6l0.1,0.1c17.1,95.3,72.3,356.5,117.3,569.4
		c22.3,105.5,42.1,199.2,53.1,252.8c3.7,17.9,5.7,35,6.2,51.3c0.3,10.2,0.1,20.2-0.7,30c-0.5,6.5-1.2,13-2.2,19.3l35.6,13.1
		l381.6-1.9l32.3-23.7c-2.4-4.8-4.8-9.6-7.2-14.5c-25.9-52-53.5-104.8-77.4-150.5c-17.3-33.2-32.7-62.6-44-85.2
		c-30.2-60.4-60.4-134.6-76.9-205.5c-9.9-42.5-14.8-83.5-11.6-119c-17.3-7.1-30.1-13.3-36-17.6l0,0c-16-11.5-35.1-31.7-47.1-56
		c-9.7-19.6-15.1-42-11.4-65.2c3.6-22.4,30.8-52.6,65.2-76v-0.1c29.9-20.3,66.2-36.6,97.3-38.7c8.8-0.6,18.4-1.1,27-1.6
		c37.7-2.2,56.6-3.3,95.2-12.9c12.3-3,29.5-7.4,49-12.5c2.7-45.9-6.7-98.7-23.7-150.1c-24.8-75-66.1-147.9-110-191.8
		c-14.1-14.1-31.7-25.7-51.7-34.9C1067.9,575,1046.8,568.4,1024.5,563.7L1024.5,563.7z"/>
	<path class="st2" d="M1121.4,987.5L1121.4,987.5z M1044.8,563.7c-9.1-11.4-20.3-22.5-33.7-33.1c-15-11.9-32.7-23.4-53.2-34.3
		c-39.5-21-83.9-35.6-129.9-42.9c-44.8-7.1-91.1-7-135.6,1l1.5,35.6c2,0.2,8.7,4.4,16.2,9.4c-23.3,6.7-44.8,16.3-44.5,44.7l0.2,19.7
		l19.5-2c33.1-3.3,67.8-2.3,101.8,2.9c10.4,1.6,20.7,3.6,30.9,6l-4.9,1.3c-23,6.3-43.9,14.1-61.1,23.2
		c-52.1,27.4-85.1,68.6-101.6,122.1c-15.9,51.8-16.1,114.7-3.1,187.6l0.1,0.1c17.1,95.3,72.3,356.5,117.3,569.4
		c22.3,105.5,42.1,199.2,53.1,252.8c3.7,17.9,5.7,35,6.2,51.3c0.3,10.2,0.1,20.2-0.7,30c-0.5,6.5-1.2,13-2.2,19.3l35.6,13.1
		l381.6-1.9l32.3-23.7c-2.4-4.8-4.8-9.6-7.2-14.5c-25.9-52-53.5-104.8-77.4-150.5c-17.3-33.2-32.7-62.6-44-85.2
		c-30.2-60.4-60.4-134.6-76.9-205.5c-9.9-42.5-14.8-83.5-11.6-119c-17.3-7.1-30.1-13.3-36-17.6l0,0c-16-11.5-35.1-31.7-47.1-56
		c-9.7-19.6-15.1-42-11.4-65.2c3.6-22.4,30.8-52.6,65.2-76v-0.1c29.9-20.3,66.2-36.6,97.3-38.7c8.8-0.6,18.4-1.1,27-1.6
		c37.7-2.2,56.6-3.3,95.2-12.9c12.3-3,29.5-7.4,49-12.5c2.7-45.9-6.7-98.7-23.7-150.1c-24.8-75-66.1-147.9-110-191.8
		c-14.1-14.1-31.7-25.7-51.7-34.9C1088.2,575,1067.1,568.4,1044.8,563.7L1044.8,563.7z"/>
	<path class="st2" d="M1877.2,1024c0-225.5-88.8-439.7-248.2-599.1c-159.4-159.4-373.7-248.2-599.1-248.2s-439.7,88.8-599.1,248.2
		C271.4,584.3,182.6,798.5,182.6,1024c0,225.5,88.8,439.7,248.2,599.1c159.4,159.4,373.7,248.2,599.1,248.2s439.7-88.8,599.1-248.2
		C1788.5,1463.7,1877.2,1249.5,1877.2,1024L1877.2,1024z M1603.6,1597.6c-152.6,152.6-357.8,237.6-573.6,237.6
		c-215.9,0-421-85-573.6-237.6C303.7,1445,218.7,1239.9,218.7,1024c0-215.9,85-421,237.6-573.6c152.6-152.6,357.8-237.6,573.6-237.6
		c215.9,0,421,85,573.6,237.6c152.6,152.6,237.6,357.8,237.6,573.6C1841.2,1239.9,1756.2,1445,1603.6,1597.6L1603.6,1597.6z"/>
	<path class="st3" d="M1497.1,1196.9C1497.1,1196.8,1497.1,1196.8,1497.1,1196.9L1497.1,1196.9z"/>
	<path class="st3" d="M1566,970.9c0-0.2,0-0.1-0.1,0.1L1566,970.9z"/>
	<path class="st4" d="M1118.4,981.6L1118.4,981.6z M1557.9,909.1c-32.6-12.8-84.4-14.3-105.1-4.3c-13,6.3-40.3,15.2-71.6,24.5
		c-29,8.6-60.7,17.2-88.1,24.5c-19.9,5.3-37.5,9.8-50,12.9c-39.3,9.9-58.6,11-97.1,13.3c-8.8,0.5-18.6,1.1-27.6,1.7
		c-31.7,2.1-68.7,18.9-99.2,39.9v0.1c-35.1,24.1-62.8,55.4-66.5,78.4c-3.7,23.9,1.8,47,11.7,67.2c12.3,25.1,31.7,45.9,48.1,57.8l0,0
		c6.1,4.4,19.1,10.8,36.7,18.1c29.3,12.2,71.2,26.8,114.1,38.6c49.1,13.5,100.4,23.7,137.1,23c38.6-0.8,87.6-11.8,129.1-27.8
		c25-9.6,47.6-21.1,64.1-33.3c20.1-14.9,32.3-32,32-50.4c-0.1-4.4-0.8-8.6-2.2-12.6l0,0c-13.1-37.2-56.7-26.6-118.9-11.4
		c-52.8,12.9-121.6,29.7-190.4,23c-36.7-3.6-61.3-12-76.5-22.7c-6.7-4.8-11.2-9.8-13.7-14.8c-2.2-4.4-3-8.8-2.6-13.2
		c0.4-5,2.5-10.2,5.7-15.3l0,0c8.9-13.7,26-11,49.5-7.2c29.2,4.6,65.6,10.3,111.6-4.1c44.7-13.9,98.9-33.7,147.8-53.4
		c47.8-19.2,90.2-38.4,113.5-52c28.7-16.8,42.3-33.2,45.7-48.3c3.1-13.7-1-25.3-10-35C1578.2,919,1568.8,913.4,1557.9,909.1
		L1557.9,909.1z"/>
	<g id="_337885008">
		<path id="_337884768" class="st5" d="M841.2,1749.3l-19.8-269.7c12.5-25.6,178.4,53.4,216.8,66l12.1,140.3
			C1014.7,1705,863.2,1812.5,841.2,1749.3L841.2,1749.3z"/>
		<path id="_337884576" class="st6" d="M1009.5,1568.7c0,0,79.7-59.9,147.4-26.1c0,0,19.2,107.2,0,135.4c0,0-52.6,29.9-144.8,15
			L1009.5,1568.7L1009.5,1568.7z"/>
		<path id="_337884384" class="st5" d="M1018,1558.3c0,0,79.7-59.9,147.4-26.1c0,0,19.2,107.2,0,135.4c0,0-52.6,29.9-144.8,15
			L1018,1558.3L1018,1558.3z"/>
		<path id="_337885080" class="st5" d="M1149.2,1554.4c57.7-34.9,240.8-193.1,221.4-41l-4.3,183.7c0.4,7.3-3.2,10.2-9.9,9.6
			l-223.1-54.5L1149.2,1554.4L1149.2,1554.4z"/>
	</g>
	<g id="_337884048">
		<circle id="_337884456" class="st7" cx="822" cy="904.7" r="54.1"/>
		<circle id="_337884216" class="st8" cx="846.5" cy="886.4" r="13.8"/>
	</g>
	<g id="_337883784">
		<circle id="_337883664" class="st7" cx="1104.3" cy="852.6" r="46.4"/>
		<circle id="_337883880" class="st8" cx="1125.3" cy="836.9" r="11.8"/>
	</g>
	<path class="st7" d="M764.8,762.8c38.6-24.2,78.3-6.3,78.3-6.3s-26.6-35.1-81.2-12.7c-54.6,22.4-34.1,68-34.1,68
		S726.3,787,764.8,762.8L764.8,762.8z"/>
	<path class="st7" d="M1098.6,726.6c-58.2-9.6-65.8,38.3-65.8,38.3s12.4-20.1,57.9-20.7c22.1-0.3,50.6,16,50.6,16
		S1130.1,731.9,1098.6,726.6z"/>
</g>
<rect y="0" class="st9" width="2048" height="2048"/>
</svg>
