<?xml version="1.0" encoding="utf-8"?>
<!-- Generator: Adobe Illustrator 22.1.0, SVG Export Plug-In . SVG Version: 6.00 Build 0)  -->
<svg version="1.1" id="Layer_1" xmlns="http://www.w3.org/2000/svg" xmlns:xlink="http://www.w3.org/1999/xlink" x="0px" y="0px"
	 viewBox="0 0 512 512" style="enable-background:new 0 0 512 512;" xml:space="preserve">
<g>
	<path d="M504,255.3l-56.5-51.2l23-72.7l-74.5-16.1l-16.5-74.4l-72.6,23.3L255.3,8l-51.2,56.5l-72.7-22.9l-16.1,74.5l-74.4,16.5
		l23.3,72.6L8,256.7l56.5,51.2l-22.9,72.7l74.5,16.1l16.5,74.5l72.6-23.3l51.5,56.2l51.2-56.5l72.7,22.9l16.1-74.5l74.4-16.5
		l-23.4-72.6L504,255.3z M255.9,428.1C161.1,428.1,84,350.9,84,256.2c0-94.7,77.1-171.9,171.9-171.9h0
		c94.7,0,171.9,77.1,171.9,171.9C427.8,350.9,350.7,428.1,255.9,428.1z"/>
	<path d="M147.5,148.9c-59.8,59.8-59.8,157.1,0,216.9s157.1,59.8,216.9,0c59.8-59.8,59.8-157.1,0-216.9
		C304.7,89.1,207.3,89.1,147.5,148.9z"/>
</g>
</svg>
