<?xml version="1.0" encoding="utf-8"?>
<!-- Generator: Adobe Illustrator 22.1.0, SVG Export Plug-In . SVG Version: 6.00 Build 0)  -->
<svg version="1.1" id="Layer_1" xmlns="http://www.w3.org/2000/svg" xmlns:xlink="http://www.w3.org/1999/xlink" x="0px" y="0px"
	 viewBox="0 0 500 500" style="enable-background:new 0 0 500 500;" xml:space="preserve">
<g>
	<path d="M437.7,94.5H62.3c-21.3,0-37.5,16.3-37.5,37.5V445c0,21.3,16.3,37.5,37.5,37.5h375.5c21.3,0,37.5-16.3,37.5-37.5V132
		C475.3,110.8,459,94.5,437.7,94.5z M373.1,192.3c-10.8,58.1-62,102.4-123.1,102.4s-112.3-44.3-123.1-102.4
		c-8.6-4-14.6-12.6-14.6-22.7c0-13.8,11.2-25,25-25s25,11.2,25,25c0,8.4-4.1,15.8-10.4,20.3c9.5,45.4,49.9,79.8,98,79.8
		s88.6-34.4,98-79.8c-6.3-4.5-10.4-11.9-10.4-20.3c0-13.8,11.2-25,25-25c13.8,0,25,11.2,25,25C387.7,179.7,381.7,188.4,373.1,192.3z
		"/>
	<path d="M62.3,80.1h375.5c2.6,0,5.1,0.2,7.5,0.7V50c0-18.4-14.1-32.5-32.5-32.5H87.3c-18.4,0-32.5,14.1-32.5,32.5v30.7
		C57.2,80.3,59.7,80.1,62.3,80.1z"/>
</g>
</svg>
