<?xml version="1.0" encoding="utf-8"?>
<!-- Svg Vector Icons : http://www.onlinewebfonts.com/icon -->
<!DOCTYPE svg PUBLIC "-//W3C//DTD SVG 1.1//EN" "http://www.w3.org/Graphics/SVG/1.1/DTD/svg11.dtd">
<svg version="1.1" xmlns="http://www.w3.org/2000/svg" xmlns:xlink="http://www.w3.org/1999/xlink" x="0px" y="0px" viewBox="0 0 1000 1000" enable-background="new 0 0 1000 1000" xml:space="preserve">
<metadata> Svg Vector Icons : http://www.onlinewebfonts.com/icon </metadata>
<g><path d="M249.1,542.2c-25.5,2-70.6,13.7-96,35.3c-76.4,66.8-31.4,186.6,121.5,186.6c88.2,0,176.4-57,248.9-147.3C423.6,567.8,339.3,532.4,249.1,542.2z"/><path d="M833.2,10H166.8C80.6,10,10,80.7,10,167.1v665.8C10,919.3,80.6,990,166.8,990h666.4c86.2,0,156.8-70.7,156.8-157.1V827c0,0-254.8-106.1-384.2-168.9C519.6,764.1,407.9,829,292.2,829c-194,0-260.7-170.9-168.6-282.8c19.6-23.6,54.9-47.1,107.8-60.9c84.3-21.6,217.6,11.8,341,53c21.6-41.2,41.2-86.4,54.9-135.5H243.2v-39.3h198v-66.8H202.1v-39.3h239.1V157.3c0,0,0-17.7,17.6-17.7h96v115.9H792v39.3H554.9v68.7h194c-19.6,74.6-47,145.3-82.3,206.2c58.8,21.6,111.7,41.2,150.9,55C958.6,671.8,990,675.8,990,675.8v-2V167.1C990,80.7,919.4,10,833.2,10z"/></g>
</svg>