<?xml version="1.0" encoding="utf-8"?>
<!-- Generator: Adobe Illustrator 22.1.0, SVG Export Plug-In . SVG Version: 6.00 Build 0)  -->
<svg version="1.1" id="Layer_1" xmlns="http://www.w3.org/2000/svg" xmlns:xlink="http://www.w3.org/1999/xlink" x="0px" y="0px"
	 viewBox="0 0 512 512" style="enable-background:new 0 0 512 512;" xml:space="preserve">
<style type="text/css">
	.st0{fill-rule:evenodd;clip-rule:evenodd;}
</style>
<g>
	<path class="st0" d="M162.7,226.7c14.3-0.1,28.6,0.1,43-0.1c9.9-0.1,18.6-3.2,24.9-11.3c7.8-10,9.4-21.6,7-33.7
		c-2.7-13.8-11.9-22.6-25.9-24.7c-11.2-1.7-22.6-1.1-33.9-0.5c-11.6,0.6-17.1,6.7-17.4,18.4c-0.2,8,0,16.1,0,24.1c0,0,0,0-0.1,0
		c0,8.4,0.1,16.8,0,25.3C160.2,226.1,160.7,226.7,162.7,226.7z"/>
	<path class="st0" d="M210.9,272.4c-10.6-0.3-21.2-0.1-31.8-0.1c-11.9,0-18.5,6.1-18.7,18.2c-0.2,9.6,0,19.3,0,28.9c0,0,0,0-0.1,0
		c0,10.1,0,20.2,0,30.3c0,1.6,0.3,2.2,2.1,2.2c16.8-0.1,33.5,0.2,50.3-0.1c11.2-0.2,21.1-4.1,28.3-13.2
		c10.1-12.9,11.2-35.2,2.5-49.3C236,277.4,224.5,272.7,210.9,272.4z"/>
	<path class="st0" d="M421,11H91c-44.2,0-80,35.8-80,80v410h410c44.2,0,80-35.8,80-80V91C501,46.8,465.2,11,421,11z M297.2,357.7
		c-10.6,19-27.3,30.6-47.5,37.5c-13.7,4.7-28,6.7-42.5,6.7c-33.5,0-67.1,0-100.6,0c-1,0-2.1,0-3.1,0.1c0-89.4,0-178.7,0-268.1
		c1.5-5.1,3.1-10.1,6.6-14.3c6.2-7.6,14.3-11.7,24.1-11.8c24.2-0.1,48.3-0.2,72.5,0c18.3,0.2,36.1,3.5,52.3,12.6
		c23.1,13,35.4,32.8,36.9,59.3c1,18.5-3.3,35.4-14.6,50.3c-3.8,5-8.3,9.1-13,13.1c-1.3,1.1-2.5,2.2-4.1,3.5c2.2,1.3,4.2,2.5,6.3,3.6
		c19.2,10.3,30.6,26.5,35.1,47.5C310,318.6,307.7,338.8,297.2,357.7z M372.7,404.3c-18.8,0.7-35.7-15.4-35.6-35.5
		c0.1-20,16.6-35.4,35.4-35.6c19.5-0.1,35.9,16.5,35.8,35.7C408.3,387.9,392.3,405,372.7,404.3z"/>
</g>
</svg>
