<?xml version="1.0" encoding="utf-8"?>
<!-- Svg Vector Icons : http://www.onlinewebfonts.com/icon -->
<!DOCTYPE svg PUBLIC "-//W3C//DTD SVG 1.1//EN" "http://www.w3.org/Graphics/SVG/1.1/DTD/svg11.dtd">
<svg version="1.1" xmlns="http://www.w3.org/2000/svg" xmlns:xlink="http://www.w3.org/1999/xlink" x="0px" y="0px" viewBox="0 0 1000 1000" enable-background="new 0 0 1000 1000" xml:space="preserve">
<metadata> Svg Vector Icons : http://www.onlinewebfonts.com/icon </metadata>
<g><path d="M152.1,260.3c5.3-0.5,6,1.9,8.7,3.6c19.7,12.2-17.5,30.2-26.1,30.4c-3.2,0.2-7.2-1.8-8.6-3.6c-5.2-6.8,0.8-9.4,4.6-13.2l2.3-2.9C134.4,270.7,147.4,260.6,152.1,260.3L152.1,260.3z"/><path d="M185.1,237c2.6-1,11.9-3.4,15.6,3.6c3.7,7-1.8,50.8-1.8,78.9c0,5.3-1.5,14.6,0,19.7c0.3,1,9.3,10.4,10.4,10.8c7.4,1.9,34.5-1.7,36.4-5.4c2.4-4.7,0.9-9.9,1.7-16.1c-15.5,0-31.9-6.1-32.9-7.2c-1-1-3.7-3.2,0-7.2c3.8-4,21.7-6.2,34.7-5.4c-0.9-10.7,2.6-22.8-3.5-23.3c-6-0.4-25.4-3.3-27.8-5.4c-2.3-2-4.5-5.9-3.5-10.7c1-4.8,3.3-4.8,5.2-5.3c9.3-3.1,21,1.3,26,3.6c21.4,9.7,26.3,17.9,24.3,46.6c-2.3,31.1,4.7,39.7-17.4,52c-6.8,3.8-7.8,6.3-20.7,5.3c-5.5-0.3-19.8-4.6-27.8-1.7c-0.8,0.2-2.5,5.4-5.7,6.1c-2,2.2-0.4,2.1-1.2,2.8c-0.8,0.8,0,3.6,0,3.6c6,1.7,9.8,1.2,15.6,3.5l20.8,12.6c5.8,7.9,6.7,28.8,1.8,37.6c-2.8,4.9-10.9,7.6-13.9,12.6c-1,1.7-0.6,5.3-1.7,7.1c2.2,1.7,1.4,3.8,3.5,5.5c3.1,2.2,6.2,0.2,10.4,1.7c4.9,1.8,11.5,6.3,17.4,9c0,0.5,0,1.2,0,1.8c4.4,1,9.3-1.1,13.9,0c1.4,0.3,6.7,4.8,8.6,5.4c10.7,2.8,17-0.9,20.8,8.8c2.9,7.9,1.2,20.3-5.2,23.4c-19.1,8.7-43-11.7-53.8-18c-4.7-2.7-9.3-2.4-13.9-5.5c-7.5-4.8-15.5-16-32.9-10.7c-3.1,1-8.8,8.9-12.2,10.7c-4.3,2.2-7.3,1.5-12.1,3.6c-11.3,5-28.2,22-50.2,14.3c-0.7-0.2-3.1-4.8-3.4-5.2c-5.8-7.7-3.9-8.5-1.8-18c7.1,0,16.2-1.2,20.8-1.9c16.9-2.4,33.9-7.3,39.8-14.3c5.8-7-3.7-16.9-12.1-28.6c-1.9-2.6-1.4-5.3-3.5-7.2c-5.7-5.1-13.2-6.2-19.1-10.7c-1.2-1-1-1.6-2.3-1.8c-7.3-1-4.6-13.9,9.3-12.7c8.1,0.8,48.1,36.2,50.3,37.7c2,1.5,5.7,1.2,8.6,0c1.9-0.8,3.3-3.4,4.6-4.7c3-3.1,7.6-7.2,9.3-11.4c1.8-4.6,0-14.4,0-14.4c-2-1.4-4.3-7.9-8.7-9c-9.1-2.4-27.5,3.2-31.2,0c-3.7-3.2-0.8-11.9,1.7-16l12.2-5.4c-0.8-0.5-0.3-1.7-2.3-4.7c-1.8-3-1.1-2.9-3-4.3c-12.1-8.9-32.2,2.3-46.8-3.5c-16.8-6.9-13.9-13.1-13.9-35.9c0,0-0.6-9.9,0-10.7c0.6-0.9-1.5-17.9,3.6-23.4c5-5.3,12.1-3.2,17.3,14.4c10.3,0,24.4,1,27.7,1.8c3.3,0.8,4.6,5.8,1.7,8.9c-3,3.2-8.6,4.9-17.4,7.1c-2.1,0.5-7.6,1.6-12.1,1.8c-0.9,12.4,0,18.2,3.4,19.8c3.4,1.4,31.6-1.4,34.7-12.6c2.7-10.6,0.7-28.4,0-39.4c-0.9-11.9-6-53-1.8-61C180.6,239.2,182.5,238.1,185.1,237L185.1,237z"/><path d="M70.5,255.5c4.7-1.5,5.9-2.5,12.3,3c6.5,5.4,4.4,34.5,3.5,46.6c1.9,0.9,3.9,5,5.2,5.4c4.2,1.4,9.6-1.3,13.9,0c2.8,0.7,7.2,4.3,8.6,7.1c1.3,2.9,1.9,6.4,0,9c-2,2.6-5.7,4.7-8.6,5.3c-13.9,3.1-20.4-0.1-24.3,12.6c-2.1,6.8-3,17.7,0,23.4c0.7,1.3,1.4,2.5,5.2,3.5c3.9,1.1,10.9-2.2,12.2-1.7c1,0.3,3.4,3.5,3.4,3.5s0.6,8.7-1.7,12.5c-3.4,5.6-13.6,4.2-15.6,12.6c-1.3,5.3,1.6,13.7,1.7,16.1c0.3,5.9-0.4,17.8-0.3,19.1c0.7,7.5,0.3,2.4,0.3,2.4c3.2,13.5-0.7,51.1-5.2,57.4c0,0-4.3,5.7-5,6.3l-3.7,2.6c-6.7,2.1-17,6.3-27.7,3.6c-9-2.1-22.9-19.3-17.4-35.8c0.1-0.8,3.5-3.6,3.5-3.6s4.9-0.5,7,0c4.7,1.3,11.2,14.9,13.8,16.2c2.7,1.1,5,0.7,7,0c12.5-4.5,7.3-50.8,8.7-68.2c-1.8-0.9-4-5-5.2-5.4c-20.9-7.2-28.3,25.8-50.2,5.4c-4-3.7-0.4-8.6,1.7-12.6c4.1-7.5,10.7-4.6,20.3-7.2c1.4-0.4,6.7-5,7.5-5.3c4.9-2.1,9.2,0.5,13.9-1.6c2.8-1.7,11.4-14.7,12.1-18c2.5-13.6-2.5-39.1-12.1-41.3c-7-1.5-10.3,2.9-13.9,3.6c-6.3,1.3-17.5,4.2-24.2,1.8c-0.9-0.2-3.5-3.6-3.5-3.6s-0.6-10.5,1.8-14.2l3.4-2.9c1.3-0.5,4.9-2,7-2.5c8.9-2.1,18.7,1.6,27.7,0c3-0.7,7.7-4.4,10.4-5.4c-1.3-9.6-4.2-41.2,1.7-46.6C67,257.1,65.7,256.9,70.5,255.5L70.5,255.5z"/><path d="M724.1,401.9c4.1-3.7,14.6-18.3,17.3-23.3c0.5-1,3.5-5.4,3.5-5.4c1.4-7-2.7-14.8-3.5-19.6c-0.2-0.2,2.5-3.6,0-7.2c-2.4-3.6-10.3,1.9-15.5,5.4c-2,1.2-1.6,4-3.4,5.3c-13.1,9.4-15.6,10.4-29.5,3.6c-1.9-2.9-3.8-4.7,0-10.7c3.8-6.1,22.8-16.2,34.7-21.6c-0.3-4.4,1.3-11.9,0-16.2c-0.3-0.7-4.6-3-5.1-3.6c-21.6-26-12.2-32.3-12.2-32.3s12.9-7.4,20.9-3.6c7.8,3.8,16.1,46,25.9,19.7c0.8-2.1,4-9.5,3.5-12.6c-0.3-2.2-6.5-5.6-6.9-7.1c-0.6-1.5,0.1-7.3,0.1-7.3l1.5-3.4c2.3-1.3,6.9-3.7,6.9-3.7s7-0.4,10.5,1.8c2.2,1.4,10,19.4,10.4,23.4c0.4,5.4-1.5,15.3-3.4,19.7c-1.1,2.1-6,4.2-7,7.2c-1.8,4.5,0.1,6.8-1.8,10.7c-1.2,2.2-6.4,4.2-6.9,7.2c-3.4,16.3,10.3,37.8,12.1,52c6.2,50.3-2.2,109.6-31.2,129.1c-0.3,0.2-4.4,0.7-4.9,1.1l-10.7-3c-1.7-2.8-5-4.8-6.8-7c-2.4-3.2-2.9-7.4-5.3-10.8c-1.5-2.2-7.7-5-8.6-7.2c-8.4-19.2,9.3-18.4,19.1-12.6c2.1,1.2,5.9,6.9,8.7,7.1c3.7,0.4,5-2.5,6.9-3.5c14.7-8.1,5.8-15.9,6.9-30.5c0.2-2.8,4.8-10.2,5.2-12.5c2-13.1-0.9-25-3.4-34.1c-0.3,0.4-4.8,1.2-5.3,1.8c-2.3,2.3-1.9,7.7-3.4,10.7c-2.8,4.7-8.3,8.8-12.1,12.6c-5.5,4.9-11.1,14.5-19,16.1c-2.9,0.5-10.6-1.9-10.4-1.9c-0.2-0.2-5.8,2.1-8.7-7.2c-3-9.2,11.2-11.2,24.3-21.5L724.1,401.9L724.1,401.9z"/><path d="M913,262.2c14.9-2.5,21.8,7.4,17.4,19.6c-6.6,18.3-39.1,15.9-60.7,19.8c-2.9,0.5-10.9,4.9-13.8,5.4c-9.2,1.1-15.7-1.8-24.4,1.7c-4.3,1.7-7.1,4.5-10.3,7.2c-3.2,2.6-6.5,4-8.7,7.1c-2.1,3-1.7,7.1-1.7,7.1s1.9,17.1,3.5,23.4c1.2,4.9,7.7,13.3,8.7,19.6c4.5,30.4-11.5,121.8-22.5,132.6c-9.8,9.5-15.9,9-20.8,5.5c-5-3.7-3.3-3.4-5.3-7.2c-2.6-5.2-1.8-11-1.7-10.8c1.6-3.5,0-5.8,1.7-8.9c2.5-4.7,9.7-8.3,12.2-12.6c0.7-1.4-0.4-4.1,0-5.4c1-5,7.3-12.3,8.6-17.9c6.6-26,10.6-48,8.7-77.2c-1.6-23.1-21-40.4-13.8-64.4c0.6-2.6,4.8-11.6,6.9-14.4c9.4-12.8,44.3-1.8,64.1-7.2c1.4-0.4,5.3-4.8,6.9-5.4c6.5-2.1,10.6,0.1,17.3-1.8c8.1-2.2,15.2-8.3,22.6-12.5C909.6,264.6,910.4,262.6,913,262.2L913,262.2z"/><path d="M916.5,315.9c0,0,5.7,0,8.7,1.7c10.8,6.4,0.8,19.2-1.8,26.9c-1.9,5.7-5.5,14.6-6.9,19.8c-0.9,3.1,0.7,5.8,0,8.9c-0.4,1.7-2.1,6.6-5.2,7.2c-3.1,0.5-5.8-1.7-6.9-3.6c-6-9.9-5-42,0-52C906.3,320.9,916.5,315.9,916.5,315.9L916.5,315.9z"/><path d="M864.1,326.3c0,0,5.8,1.3,7.4,3.8c1.9,3.4,0.9,6.8,1.8,10.8c3.1,15.7,2.1,38.5-1.8,53.8c-1.6,5.8-7.7,14-8.7,19.7c-0.4,1.9,0.6,5.2,0,7.2c-2.2,6.4-9.2,17.5-10.5,25c-2.9,17.4,4.1,32.5,22.5,26.9c2.7-0.9,4.7-5.6,7-7.2c-2.1-15.7-13.3-35.2,6.9-25.1c15,7.5,17.9,24.6,20.9,44.8c-1,2.2-2.7,4.9-7,5.4c-4.3,0.6-5.2-0.6-6.9-1.7c-1.4-0.9-1.3-1.2-3.5-5.4c-2.2-4.3-4.6-2.9-5.2,0c-1.1,0.6-1.8,5.4-1.8,5.4s-13.9,14.3-41.6,3.5c-9.9-6.6-14.2-33.9-8.6-50.2c1.4-4.2,6.9-9.9,8.6-14.4c3.5-9.4,3.5-17.5,7-26.9c1.1-3.2,6.2-8.6,6.9-12.5c3-18-7.2-26.3-8.7-39.4c-1.1-10.2,0.1-15.9,5.2-19.8c2.7-2,2.2-2,6.9-3.5L864.1,326.3L864.1,326.3z"/><path d="M909.6,385.8c0.3,0.6,4.6,1.3,5.1,1.9c6.3,6.1,6,28.1,8.7,39.4c5.1,20.5,17.6,43.1,31.2,55.6c2.2,1.9,3.9,6,7,7.2c9,3.3,17.3,1.3,20.8,10.8c7.4,20-21.3,19.8-32.9,12.4c-5.1-3.1-19.8-18.2-22.6-23.2c-4.9-9-5.1-18.6-8.6-28.7c-2.1-6-8.8-14-10.4-19.8c-2.9-10.1-4.8-45.9-1.8-53.7L909.6,385.8L909.6,385.8z"/><path d="M897.4,538.3c8.5,0,21.5,4,27.8,7.1c26.5,13.6-34.2,14.3-48.6,10.8C851.7,549.9,886.3,538.3,897.4,538.3L897.4,538.3z"/><path d="M484.9,540c32.7-5.2,52.7,9.4,81.4,7.2c11.9-1,37.4-5.7,39.9-3.6c2.5,2,1.7,7.1,1.7,7.1l-3.4,3.5c-11,4.1-124,1.1-128.3-1.7C467.9,546.8,478.1,541,484.9,540L484.9,540z"/><path d="M833.4,540c10.1-0.5,19,2.6,20.8,5.4c1.8,2.9,2.2,4.4-1.8,7.2c-3.9,2.8-53.7,1.4-81.4,3.6c-38,2.9-129,3.4-131.7-3.6c-2.7-6.9,2.7-7.2,7-8.9c8.7-3.9,24.8-1.8,36.3-1.8c27.5,0,58.5-0.1,83.3,1.8c5.4,0.4,13.6-1.5,19,0l3.5,3.6C805.1,549.4,818.6,540.6,833.4,540L833.4,540z"/><path d="M34.3,541.8c18.5-2.7,37.7,2.5,52,3.6c89.5,6.9,183.7-5,270.4,1.8c26.3,2.1,78,1.7,78,1.7s4.3,1.8,1.7,5.4c-2.5,3.7-29.2,0.7-45.1,1.9c-87.3,6.7-182.1-5.3-272,1.8c-10.6,0.8-28.6,2.7-41.6,1.8c-3.7-0.3-9.4-2.5-15.6-1.8c-3,0.3-10.9,4.7-13.8,5.4c-11.7,2.4-23.7,1.6-34.7,0c0-0.7-3.3-2.8-1.7-9.1C13.3,548.2,24.5,543.1,34.3,541.8L34.3,541.8z"/><path d="M956.3,541.8c12.5-3.7,30.7,3.8,33,7.1c2.3,3.4-1.6,7.3-1.6,7.3c-13.5-1.1-34.8-0.2-38.1-3.6C946.1,549.3,956.3,541.8,956.3,541.8L956.3,541.8z"/><path d="M561.2,726.4c22.6-0.7,23.9,35.5,3.5,37.7C539.5,766.8,538.7,727.1,561.2,726.4L561.2,726.4z"/><path d="M683.8,675.4c-2.4-15-10.5-24.1-25.8-24.1c-22.7,0-30,22.3-30,42.3c0,19.3,4.7,43.2,29.8,43.2c12.3,0,22.8-9.5,26-26.7h17.7c-1.9,17.9-12.5,43-44.3,43c-30.5,0-48.8-23.8-48.8-56.2c0-34.8,16.3-62.3,52.2-62.3c28.6,0,39.3,21.4,40.9,40.9L683.8,675.4L683.8,675.4L683.8,675.4L683.8,675.4L683.8,675.4z"/><path d="M728.3,693.8c0-15,5.4-42.9,31.6-42.9c26.2,0,31.5,27.9,31.5,42.9c0,15.1-5.3,43-31.5,43C733.7,736.8,728.3,708.9,728.3,693.8L728.3,693.8z M709.5,693.8c0,29,15.7,59.3,50.4,59.3c34.6,0,50.4-30.3,50.4-59.3c0-29-15.7-59.2-50.4-59.2C725.2,634.5,709.5,664.8,709.5,693.8L709.5,693.8z"/><path d="M827.1,637.6h17.3v16h0.4c4-6,13.3-19,32.9-19c19.6,0,25.8,12.1,29,18.2c9.1-10.5,16.4-18.2,33.4-18.2c11.6,0,33.5,6.1,33.5,37.7V750h-18.2v-72.5c0-15.6-4.5-26.1-20.1-26.1c-15.5,0-25.7,15.1-25.7,30.2V750h-18.3v-77.8c0-9.4-3.5-20.9-17.1-20.9c-10.5,0-28.7,6.9-28.7,37.4V750h-18.4L827.1,637.6L827.1,637.6L827.1,637.6z"/><path d="M50.1,614.7c0,0,8.9-1.7,14.9,0c6,1.7,6.8,3.4,6.9,6.2c0.3,2.7-0.1,6.2-7.4,9.8c-4.5,2.5-4,2.4-4.5,2.4c-0.6,0-2.1-0.4-4.2,0.4c-2,0.8-3.1,0.8-7.2,5.6c-4.1,4.8-3.9,5.1-3.9,5.1v11.3c0,0,1.8,8.5,4.8,12.4c2.9,4.2-1,10.2-8.3,7.8c-7.2-2.7-11.8-4.3-15.1-11.1c-3.3-6.9,0.5-16.9,2.2-20.5c0,0,2.7-0.9,4.3-5c0,0,2.4-2.7,0.6-7.5C31.4,627.1,43.8,617.5,50.1,614.7L50.1,614.7z"/><path d="M76,617.8c0,0-1.2,4.5,2.7,9.6c3.8,5.2,5,7.6,8.1,10.6c3.3,3,3,3.5,8.6,3.2c5.8-0.2,6-4.2,5.8-8c-0.3-3.7,1.3-6.3-4-11.9c-5.1-5.7-12.9-7.5-16.9-7.4C76.2,614.3,76,617.8,76,617.8L76,617.8z"/><path d="M59.7,671.3c-2-0.2-4.4,0.1-7.2,0.9c0,0-2,2.8,0.8,5.8c2.9,2.9,4.5,5.4,8.5,7.2c4,2,3.8,2.2,6.9,2.7c3.2,0.6,5.8,0,8.9,1.6c3.1,1.7,8.5,5.4,9.6,9c1.2,3.5,0.3,7.9-0.1,11.2c-0.6,3.4-0.6,4.1-0.6,4.1s0.6,2.7-6.2,5.8c-6.6,3.3-4.3,2.8-9.3,5.3c-4.9,2.5-4,1.6-4,1.6s0.7,0.9-4.2-0.2c-5-1.1-8-0.5-8.5-1.1c-0.4-0.4-3.2-3.3-7.6-1.3c0,0-4.9,2.4-5.5-2.4c-0.4-4.7,0.8-16.5-12.1-15.3c0,0-5.4,2.1-1.9,12.1c0,0,3.3,7.1,6.1,9.4c2.8,2.3,3.9,3.3,7.1,9.3c3.3,6.1,7.4,4.2,13.8,4.3c6.6,0.1,13.9-0.1,13.9-0.1s0.8-2.1,10-1.3c0,0,6.1-2.5,9.9-7.8c0,0,9.7-2.1,11.2-10.6c0,0,1.5-1.9,2-9.2c0,0-0.8-3.5-2.4-8.3c0,0-0.4-2.7,0.4-6.4c0.8-3.8-1-9-4.2-13.4c-3.1-4.4-9-9.2-13.2-10.5c-4.1-1.1-3.4-1-3.4-1s-9.7,0.5-12.3-0.1C64.7,672.2,62.6,671.5,59.7,671.3L59.7,671.3z"/><path d="M166.1,663.1c-3.8,0.9-11.8,7.8-13.2,16.7c-1.5,8.9,0.1,24,1.9,30.3c1.9,6.4,7.6,17.2,12.6,21.7c5.1,4.4,12.5,6.7,12.5,6.7s2.5,0.1,4.1,2.5c1.4,2.4,3.5,5,4.9,6.5c1.3,1.4,1.5,1.4,6.4,1c4.9-0.6,7.2,1.9,13.9-3.8c6.7-5.6,4.6-6,8.1-7.6c0,0,0-0.8,2-1.2c2.1-0.5,9-1.6,12-11.1c3.1-9.4,4.4-14.2,3.6-22.2v-6.1c0,0-1.4-6.2-4.9-9.8l-0.5-2.6c0,0-0.8-2.9,1.4-5.5c2.2-2.6,4.7-6.9,4.7-6.9s1.4-2.2,0.8-10.1c-0.7-7.9-2.2-12.1-5-15.7c-2.8-3.4-2.3-7.9-2.6-10.7c-0.3-2.9-8.9-14.2-13.3-18.1l-2-2.4c0,0-6.1,1.2-10.1-1.4c-4.1-2.7-6.4-2-9.8-1.8c0,0-3.9,2.5-5.8,4.8c-2,2.2-2,2.6-2,2.6s-5.5,0.6-7.4,1.3c-2,0.7-10.7,10.4-12.5,15.2c0,0-1.1,9.1,0.3,12.1c0,0,0.8,5.3,4.6,4.7c3.9-0.6,2-0.2,2-0.2s7.5-13.9,12.8-17.8c5.2-3.9,9.5-6.7,19.5-1.6c0,0,4.1,2.7,7.1,8.2c3.2,5.3,5,4.4,6.5,7.4c1.6,3.1,2.9,13.2,4.1,18.6c1.2,5.3,1.2,5.8,1.2,5.8s2.9,7.2,2.7,11.2c-0.2,4.3-2.5,10.7-3.9,12.8c-1.4,2-1,7.7-1.2,10.6c-0.3,2.9-1.3,6.7-4.1,9.5c-2.8,3-4.6,6.8-10,10.9c-5.4,4.1-4.7,3.9-4.7,3.9s-6.9,4.4-13.1,0.6c-6-3.6-12.5-9.3-16.5-17.8c-4-8.7-5.1-21.1-4.1-27.8c1.1-6.6,3.3-15.5,1.7-18.5C169.3,664.9,167,662.9,166.1,663.1L166.1,663.1z"/><path d="M296.4,608.8c0,0-7.7,1.7-7.8,5.1c-0.1,3.5,0,9.9,1.1,14.2c1.1,4.4,3,9.5,4.4,11c1.4,1.5,2,2.3,2,2.3l0.3,15.1c0,0-5.4,9.5-5.7,14.4c-0.3,4.9-1,25.4-0.9,29.6c0.1,4.3,0.2,12.4-1.6,17.6c-1.8,5.4-2.5,9.4-0.6,18.3c2,8.9,2,10.2,3.4,11.8c1.5,1.7,6.4,4.7,9.5,0.2c3-4.4,3.1-6.1,3.6-11.8c0.4-5.8,1.8-24.8,1.3-26.7c-0.4-1.9-1-6.5-1-6.5l0.7-16.3l4.4-5.3c0,0,4.8-1.9,0.7-9.8c-4-7.8-6.1-12.3-6.1-12.3s-1.2-4.1-0.2-9.4c0.9-5.2,1-9.1,2.3-12.4c1.2-3.5,1.6-14.1,1.1-19.4C306.8,613.2,303,606.6,296.4,608.8L296.4,608.8z"/><path d="M349.5,608.2c0,0-5.5,4.6-5.6,10.8c-0.3,6.2,1.4,7.9,1.6,9.7c0.3,1.7-2.7,7.2-1.5,12.8c1.3,5.7,5,9.3,5,9.3l0.5,2.1c0,0-0.5,4.2-2.9,7.1c-2.3,2.9-3.1,4.7-6,5.8c-2.9,1.1-14.2,1.2-18.9,2.2c-4.8,1-6.3,7.7-0.7,9.3c5.6,1.6,18.3,1.4,18.3,1.4s4.5,2,5.1,6.7c0.5,4.6,0.5,13.2,0.4,21.1c-0.1,8.1-1,34.4-1,34.4s-0.6,7.2,6.4,8.7c7.1,1.3,11.9-0.7,12.1-8.8c0,0-0.2-17.3-1.4-29.1c-1.2-11.9-1.5-13.3-1.5-13.3l2.9-32.7l-8.4-13.9c0,0-1-1.3,1.8-4.5c2.8-3.2,5-3.5,6.5-14.4c1.6-10.9,1.8-14.4,1.8-14.4S364.7,607.1,349.5,608.2L349.5,608.2z"/><path d="M440.2,611.8c0,0-2.6-4.7-7.7,0.1c-5,4.9-8.7,9.6-8.7,9.6s-5.8,6.6,2.2,14.2c7.9,7.7,1.8,2,1.8,2s-1.2,16.5-1.2,20.4c0,3.9,1.6,5.7,1.6,9.4c0,3.6-1.4,9.5-2.2,16.2c-0.8,6.7-2.9,20.9-2.2,26.3c0.8,5.3,2.6,10.7,2.5,15.9c-0.2,5.2,1.5,8.4,5.2,11.6c3.8,3.1,16.6,10.7,20.9,13.2c4.3,2.5,10.1,4.7,20.4-1.9c10.1-6.5,17.7-13.2,19.7-20.2c2.1-7,2.2-8.6,2.2-8.6s0.5-24.3-0.5-30.5c-1-6.2-8.7-12.1-13.8-3.6l-1,1.2c0,0,1.2,15.7,0.1,23.2c-1.1,7.6-1.8,11.6-8,16.2c-6.3,4.5-14.3,7.5-22.2-1.4c-7.7-8.9-8.3-11.3-8.3-24.2c0-13.1,0-34,0.9-41.1c0.8-7.2,4.6-27.6,1.9-37.5C440.9,612.6,440.2,611.8,440.2,611.8L440.2,611.8z"/><path d="M483.4,612.1c0,0-6.7,1.5-5.9,18.5c0.8,17.1,1.1,22.1,0.6,29.5c-0.6,7.4,0.8,12.6,5.8,12.3c5-0.3,8.7-4.1,11.4-14.8c2.9-10.6,3.8-20.4,2.3-30.4c-1.3-10.1-0.9-10.5-3.6-14C491.5,609.5,487.5,609.6,483.4,612.1L483.4,612.1z"/></g>
</svg>