<?xml version="1.0" encoding="utf-8"?>
<!-- Svg Vector Icons : http://www.onlinewebfonts.com/icon -->
<!DOCTYPE svg PUBLIC "-//W3C//DTD SVG 1.1//EN" "http://www.w3.org/Graphics/SVG/1.1/DTD/svg11.dtd">
<svg version="1.1" xmlns="http://www.w3.org/2000/svg" xmlns:xlink="http://www.w3.org/1999/xlink" x="0px" y="0px" viewBox="0 0 1000 1000" enable-background="new 0 0 1000 1000" xml:space="preserve">
<metadata> Svg Vector Icons : http://www.onlinewebfonts.com/icon </metadata>
<g><path d="M179.9,137.8c48.7,0,88.1,35.5,88.1,79c0,43.5-39.4,78.9-88.1,78.9c-48.6,0-88.1-35.5-88.1-78.9C91.9,173.3,131.3,137.8,179.9,137.8z"/><path d="M253.4,612.1c-23.3,72-17.5,45.3-109.7,245.8L10,774.5c0,0,149.1-135.6,179.8-197.6c32.3-65.4-35.8-100.2-35.8-100.2L51.6,412.8l55.3-85.2c77.2,57.3,83,62.1,135.2,114.4C282.3,482.4,277.3,538.5,253.4,612.1z"/><path d="M980,705.6c-26.1,244.5-344.2,153.7-344.2,153.7l17.3-70l61.7,15.9c136.3,8.7,111-110.4,111-110.4V348.6c0-131.4-111.6-145-335.4-65l58.1,6.6c-4.5,15.4-15.5,58.2-37,58.2h276.8v75.2H637.9v75.2h150.3v37.6H637.9v150.9c0-8.4,50.8-19.7,71.2-34.9L695.3,597l79.9-24.6L841.3,734l-97.4,40.5l-17.3-64.4c-43.5,33.4-134.1,81.6-292.1,77.3C265.7,791.7,309,586.6,309,586.6l4.3-12.6H432c-0.8,37.6-11,76.3,3,98.5c11.4,18.2,34,26.5,53,27.4c2.1,0.3-0.5,5.5-0.5,5.6V536.4H299.6v-37.6h187.9v-75.2h-30c-38.8,37.6-74.1,75.3-74.1,75.3l-52-45.4c36.9-38.8,73.9-100.2,96.6-141.4c-18.6,7.6-37.6,15.6-57.2,24.3c-19.4,24.3-41.3,49.3-65.8,73.9c0.9,1.3-84.9-48.1-84.9-48.1c88.7-75.8,138.4-238,138.4-238l123.5,34.5c0,0-10.4,24-31.3,60.8c494.1-139.9,522.7,85.8,522.7,85.8S1005.9,461.1,980,705.6z"/></g>
</svg>