<?xml version="1.0" encoding="utf-8"?>
<!-- Svg Vector Icons : http://www.onlinewebfonts.com/icon -->
<!DOCTYPE svg PUBLIC "-//W3C//DTD SVG 1.1//EN" "http://www.w3.org/Graphics/SVG/1.1/DTD/svg11.dtd">
<svg version="1.1" xmlns="http://www.w3.org/2000/svg" xmlns:xlink="http://www.w3.org/1999/xlink" x="0px" y="0px" viewBox="0 0 1000 1000" enable-background="new 0 0 1000 1000" xml:space="preserve">
<metadata> Svg Vector Icons : http://www.onlinewebfonts.com/icon </metadata>
<g><path d="M790.3,788.9c1.2-0.5,2.1-0.8,2.9-1.1c0.8-0.2,1.8-0.3,2.9-0.3c1.6,0,3.6,0.5,5.9,1.5"/><path d="M197.6,788.9c-4.2,2.2-8,6.8-11.6,13.6c-3.6,6.9-6.7,15.3-9.4,25.4s-4.8,21.5-6.3,34.4c-1.5,12.9-2.2,26.6-2.2,41.1c0,9.3,0.4,18.3,1.1,26.9c0.7,8.6,1.6,16.8,2.8,24.7h62.5c2.8-15.5,4.2-32.7,4.2-51.6c0-14.5-0.7-28.2-2.2-41.1c-1.5-12.9-3.6-24.4-6.3-34.4c-2.7-10.1-5.8-18.6-9.4-25.4c-3.6-6.9-7.5-11.4-11.6-13.6"/><path d="M790.3,788.9c-4.2,2.2-8,6.8-11.4,13.6c-3.5,6.9-6.5,15.3-9.2,25.4s-4.7,21.5-6.1,34.4c-1.4,12.9-2.1,26.6-2.1,41.1c0,9.3,0.3,18.3,0.9,26.9c0.6,8.6,1.4,16.8,2.6,24.7h62.5c1.2-7.8,2.1-16.1,2.8-24.7c0.7-8.6,1.1-17.6,1.1-26.9c0-14.5-0.7-28.2-2.3-41.1c-1.5-12.9-3.6-24.4-6.3-34.4c-2.7-10.1-5.7-18.6-9.2-25.4s-7.3-11.4-11.4-13.6"/><path d="M209,788.9c14.1,0.7,27.4,4.2,39.9,10.5c12.5,6.3,23.3,14.6,32.5,24.8c9.1,10.3,16.4,22.2,21.7,35.7c5.3,13.5,8,27.9,8,43.1c0,18.9-4.1,36.2-12.1,51.9h401.4c-7.9-16-11.8-33.3-11.8-51.9c0-15.2,2.7-29.6,8-43.1c5.3-13.5,12.6-25.4,21.7-35.7c9.1-10.3,19.9-18.6,32.3-24.8c12.4-6.3,25.7-9.8,39.8-10.5H209z M530.6,893.5l-11.1,16.9c-2.6,3.4-5,6.9-7.3,10.3c-2.3,3.4-4.3,6.4-5.9,8.9c-0.5,0.5-1.1,1.1-1.9,1.6c-0.8,0.6-2.4,0.9-4.7,0.9c-2.3,0-3.8-0.3-4.5-0.9c-0.7-0.6-1.3-1.2-1.7-1.6c-1.9-2.4-3.9-5.4-6.3-8.9l-6.9-10.3l-11.5-16.9c-2.8-3.9-3.1-7.3-0.9-10.3c2.2-2.9,6.2-4.4,12-4.4h39.9c6,0,10.1,1.5,12.1,4.4C534.1,886.1,533.6,889.5,530.6,893.5z"/><path d="M802.1,788.9c14.1,0.7,27.4,4.2,39.8,10.5c12.4,6.3,23.2,14.6,32.5,24.8c9.3,10.3,16.6,22.2,21.9,35.7c5.3,13.5,8,27.9,8,43.1c0,9.3-1.1,18.3-3.1,27.1s-5.1,17-9,24.8h95.2V828.3h-0.3v-78.8v-0.4v-3.3c-0.2-11.1-0.9-23.2-2.1-36.5c-1.2-13.3-3.3-26.1-6.4-38.7c-3.1-12.5-7.4-24-12.8-34.4s-12.4-18.2-21-23.4c-9.7-6.1-19.2-8.5-28.5-7c-9.3,1.5-17.6,4.5-25.2,9c-7.5,4.5-13.9,9.6-19.1,15.1c-5.2,5.5-8.8,9.4-10.6,11.6c-13,15.5-26.3,31.4-40.1,47.7c-13.8,16.3-28.9,31.2-45.5,44.7c-16.6,13.5-34.9,24.6-54.9,33.3c-20,8.7-42.7,13.1-67.9,13.1h-24.3H500h-0.4H370.9h-24c-25.4,0-48.2-4.4-68.3-13.1c-20-8.7-38.3-19.8-54.7-33.3c-16.5-13.5-31.6-28.4-45.5-44.7c-13.9-16.3-27.3-32.2-40.3-47.7c-1.2-1.5-3.1-3.7-5.9-6.8c-2.8-3.1-6.1-6.4-10.1-9.9c-4-3.6-8.4-6.9-13.5-10.1c-5.1-3.2-10.5-5.6-16.3-7.2c-5.8-1.6-11.9-2.1-18.2-1.5c-6.4,0.6-12.8,2.9-19.3,6.8c-8.6,5.1-15.5,13-20.8,23.4c-5.3,10.4-9.6,21.9-12.7,34.4s-5.3,25.4-6.4,38.7c-1.2,13.3-1.9,25.4-2.1,36.5c-0.2,0.5-0.3,1.6-0.3,3.3v0.4v78.8v126.7h94.8c-3.7-7.8-6.6-16.1-8.7-24.8c-2.1-8.7-3.1-17.7-3.1-27.1c0-15.2,2.7-29.6,8-43.1c5.3-13.5,12.6-25.4,21.9-35.7c9.2-10.3,20.1-18.6,32.5-24.8c12.4-6.3,25.7-9.8,39.8-10.5"/><path d="M197.6,788.9c1.2-0.5,2.2-0.8,3.1-1.1c0.9-0.2,1.9-0.3,2.8-0.3c1.2,0,2.1,0.1,2.9,0.3c0.8,0.2,1.7,0.6,2.6,1.1"/><path d="M955,570.1c-19.4,0-35-15.6-35-35V150.2c0-19-16-35.1-35-35.1H115c-19.3,0-35,15.8-35,35.1v384.9c0,19.4-15.7,35-35,35s-35-15.6-35-35V150.2c0-58,47.1-105.1,105-105.1h770c57.9,0,105,47.1,105,105.1v384.9C990,554.4,974.4,570.1,955,570.1z"/><path d="M500,465.2c-135.1,0-245-109.9-245-245c0-19.3,15.7-35,35-35s35,15.7,35,35c0,96.5,78.5,175,175,175c96.5,0,175-78.5,175-175c0-19.3,15.6-35,35-35s35,15.7,35,35C745,355.3,635.1,465.2,500,465.2z"/></g>
</svg>