<?xml version="1.0" encoding="utf-8"?>
<!-- Generator: Adobe Illustrator 22.1.0, SVG Export Plug-In . SVG Version: 6.00 Build 0)  -->
<svg version="1.1" id="Layer_1" xmlns="http://www.w3.org/2000/svg" xmlns:xlink="http://www.w3.org/1999/xlink" x="0px" y="0px"
	 viewBox="0 0 512 512" style="enable-background:new 0 0 512 512;" xml:space="preserve">
<path d="M467.3,202.5c-34.7-43.7-83.1-85.9-146.6-124.1l-0.2-0.2c-63.8-37.4-123.9-59.1-178.1-68c-33.7-5.7-49.9,0.8-57.3,5.3
	C77.8,19.8,64.2,31,52,63.6c-19.5,52.6-30.9,116.8-31.5,192.1v0.2c0.4,75.3,12,139.7,31.5,192.3c12.2,32.9,25.8,43.9,33.1,48.3
	c7.3,4.3,23.5,11,57.3,5.3c54.2-8.9,114.1-30.9,178.1-68.2l0.2-0.2c63.6-38.2,111.9-80.4,146.6-124.1c21.5-27.2,24.2-44.9,24.2-53.4
	C491.4,247.4,489,229.7,467.3,202.5"/>
</svg>
